<svg width="64" height="64" viewBox="0 0 64 64" fill="none" xmlns="http://www.w3.org/2000/svg">
<path d="M32 64C14.3551 64 0 49.6449 0 32C0 14.3551 14.3551 0 32 0C49.6449 0 64 14.3551 64 32C64 49.6449 49.6449 64 32 64ZM32 1.04002C14.9352 1.04002 1.0471 14.9281 1.0471 31.9929C1.0471 49.0648 14.9352 62.9458 32 62.9458C49.0719 62.9458 62.9529 49.0577 62.9529 31.9929C62.9529 14.9281 49.0648 1.04002 32 1.04002Z" fill="#008AD1"/>
<path d="M32 47.2324C40.186 47.2324 46.822 44.0205 46.822 40.0584C46.822 36.0963 40.186 32.8844 32 32.8844C23.814 32.8844 17.178 36.0963 17.178 40.0584C17.178 44.0205 23.814 47.2324 32 47.2324Z" fill="#FFE400"/>
<path d="M31.9998 48.2441C23.1207 48.2441 16.166 44.65 16.166 40.0584C16.166 35.4668 23.1207 31.8727 31.9998 31.8727C40.8788 31.8727 47.8335 35.4668 47.8335 40.0584C47.8335 44.65 40.8788 48.2441 31.9998 48.2441ZM31.9998 33.8961C23.7433 33.8961 18.1894 37.0798 18.1894 40.0584C18.1894 43.037 23.7362 46.2207 31.9998 46.2207C40.2633 46.2207 45.81 43.037 45.81 40.0584C45.81 37.0798 40.2562 33.8961 31.9998 33.8961Z" fill="#008AD1"/>
<path d="M32.2901 29.9341C35.9279 29.9341 38.8769 26.9851 38.8769 23.3473C38.8769 19.7095 35.9279 16.7605 32.2901 16.7605C28.6524 16.7605 25.7034 19.7095 25.7034 23.3473C25.7034 26.9851 28.6524 29.9341 32.2901 29.9341Z" fill="#F2F7FF"/>
<path d="M32.2899 30.9388C28.1015 30.9388 24.6914 27.5287 24.6914 23.3403C24.6914 19.1519 28.1015 15.7418 32.2899 15.7418C36.4783 15.7418 39.8884 19.1519 39.8884 23.3403C39.8884 27.5287 36.4783 30.9388 32.2899 30.9388ZM32.2899 17.7723C29.2194 17.7723 26.7149 20.2698 26.7149 23.3474C26.7149 26.425 29.2123 28.9225 32.2899 28.9225C35.3675 28.9225 37.865 26.425 37.865 23.3474C37.865 20.2698 35.3675 17.7723 32.2899 17.7723Z" fill="#008AD1"/>
</svg>
