<svg width="64" height="64" viewBox="0 0 64 64" fill="none" xmlns="http://www.w3.org/2000/svg">
<path d="M32 64C14.3551 64 0 49.6449 0 32C0 14.3551 14.3551 0 32 0C49.6449 0 64 14.3551 64 32C64 49.6449 49.6449 64 32 64ZM32 1.0471C14.9352 1.0471 1.0471 14.9352 1.0471 32C1.0471 49.0648 14.9352 62.9529 32 62.9529C49.0719 62.9529 62.9529 49.0648 62.9529 32C62.9529 14.9352 49.0648 1.0471 32 1.0471Z" fill="#008AD1"/>
<path d="M42.2797 25.6111C42.7254 25.2574 43.1499 24.8682 43.539 24.4367C45.2583 22.5406 42.7183 20.1705 40.794 21.6916C39.5841 22.6467 35.6788 22.0736 34.2567 22.0948C32.1696 22.1231 30.0825 22.1514 27.9954 22.1868C25.4979 22.2222 25.4908 26.1063 27.9954 26.071C29.8066 26.0427 31.6248 26.0214 33.436 25.9931C33.436 26.0639 33.4289 26.1346 33.4289 26.1983C31.4975 26.1629 29.5943 26.4106 27.6911 26.7502C25.5616 27.1251 26.0215 30.7829 28.2076 30.5636C29.3042 30.4504 30.4292 30.2735 31.5329 30.2169C31.7097 30.2098 31.8866 30.2098 32.0635 30.2027C32.8205 30.224 33.4431 30.415 34.1506 30.6343C34.094 30.7121 34.0374 30.79 33.9879 30.8678C32.6931 31.5965 31.3064 31.7522 29.5519 32.0988C27.9671 32.4101 26.7997 33.344 27.1251 35.0845C27.5213 37.214 29.7075 38.1833 30.9598 39.7185C32.0635 41.0699 32.6153 42.4282 33.8747 43.3692C33.903 43.4258 33.9383 43.4895 33.9666 43.5461C34.2638 44.2111 34.2496 44.9257 34.6812 45.5129C35.5231 46.6449 37.5183 46.9138 38.7351 47.3241C40.7091 47.9962 41.7986 45.4351 40.6241 44.0767C40.0794 43.447 39.5346 42.8244 38.9898 42.1948C38.4946 41.6217 37.9003 41.4802 37.3485 41.6076C37.2777 41.3033 37.1574 41.0203 36.9593 40.7869C36.457 40.1713 35.9618 39.5629 35.4594 38.9474C35.233 38.6714 34.9642 38.5087 34.6812 38.4168C34.4902 38.0772 34.3204 37.7588 34.1647 37.5182C34.4124 36.7754 34.2355 35.8768 33.6553 35.3462C34.0162 35.226 34.377 35.0986 34.7307 34.9429C35.7212 34.5043 36.6127 33.9312 37.4121 33.2379C37.4758 33.1954 37.5395 33.1601 37.5961 33.1105C37.6456 33.0752 37.6881 33.0327 37.7376 32.9973C37.8295 32.9195 37.9074 32.8205 37.9781 32.7143C38.1621 32.5304 38.346 32.3464 38.5158 32.1483C38.7705 31.8653 38.912 31.5611 38.9828 31.2569C40.2209 30.4079 41.742 29.7641 42.8811 29.092C44.6215 28.0661 43.8008 25.9861 42.2797 25.6111Z" fill="#FFE500"/>
<path d="M43.7229 22.3002L41.8693 25.0948H38.4804C38.82 25.5972 39.0747 26.1844 39.2303 26.8211H43.73L41.8763 29.6157H39.2869C38.6643 33.1178 35.3745 34.9573 32.1554 35.2969L40.9212 46.2489H36.4145L27.8255 35.5162V33.0612H30.2239C34.2 33.0612 35.4452 31.0095 35.5867 29.6087H26.7713L28.625 26.8141H35.1268C34.1363 25.2293 32.0492 25.0878 29.8065 25.0878H26.7642L28.6179 22.2932H43.7229V22.3002ZM43.7229 20.7084H28.625C28.0873 20.7084 27.592 20.9772 27.2949 21.423L25.4412 24.2176C25.1158 24.7057 25.0875 25.3354 25.3634 25.8589C25.6393 26.3825 26.1841 26.7009 26.7713 26.7009H26.7996L25.4412 28.7384C25.1158 29.2266 25.0875 29.8563 25.3634 30.3798C25.6393 30.9034 26.1841 31.2217 26.7713 31.2217H32.1978C31.6743 31.3845 31.0234 31.4764 30.2239 31.4764H27.8255C27.401 31.4764 26.9977 31.6462 26.6935 31.9434C26.3964 32.2405 26.2266 32.6509 26.2266 33.0754V35.5304C26.2266 35.8912 26.3468 36.245 26.5732 36.528L35.1622 47.2607C35.4664 47.6427 35.9263 47.862 36.4074 47.862H40.9141C41.5297 47.862 42.0886 47.5083 42.3504 46.9564C42.6192 46.4046 42.5414 45.7466 42.1593 45.2655L34.9853 36.3016C35.9546 35.962 36.846 35.5092 37.6172 34.9503C38.9756 33.9668 39.952 32.7004 40.4897 31.2288H41.8622C42.3999 31.2288 42.8951 30.96 43.1923 30.5143L45.0459 27.7197C45.3714 27.2315 45.3997 26.6018 45.1237 26.0783C44.8478 25.5618 44.3031 25.2363 43.7158 25.2363H43.6875L45.0247 23.2271C45.2086 22.9653 45.3077 22.654 45.3077 22.3144C45.3218 21.4229 44.6073 20.7084 43.7229 20.7084Z" fill="#008AD1"/>
<path d="M25.675 26.2693H13.8811C13.2797 26.2693 12.7986 25.7811 12.7986 25.1868C12.7986 24.5925 13.2868 24.1044 13.8811 24.1044H25.675C26.2764 24.1044 26.7575 24.5925 26.7575 25.1868C26.7575 25.7811 26.2764 26.2693 25.675 26.2693Z" fill="#008AD1"/>
<path d="M26.7714 35.5941H21.0124C20.411 35.5941 19.9299 35.106 19.9299 34.5117C19.9299 33.9174 20.4181 33.4292 21.0124 33.4292H26.7714C27.3728 33.4292 27.8539 33.9174 27.8539 34.5117C27.8539 35.106 27.3728 35.5941 26.7714 35.5941Z" fill="#008AD1"/>
<path d="M17.8075 35.7141C17.1424 35.7141 16.6047 35.1764 16.6047 34.5113C16.6047 33.8463 17.1424 33.3086 17.8075 33.3086C18.4725 33.3086 19.0102 33.8463 19.0102 34.5113C19.0102 35.1764 18.4654 35.7141 17.8075 35.7141ZM17.8075 33.5421C17.2768 33.5421 16.8382 33.9736 16.8382 34.5113C16.8382 35.049 17.2698 35.4806 17.8075 35.4806C18.3452 35.4806 18.7768 35.049 18.7768 34.5113C18.7768 33.9736 18.3381 33.5421 17.8075 33.5421Z" fill="#008AD1"/>
<path d="M25.6749 30.6558H7.30122C6.69985 30.6558 6.21875 30.1676 6.21875 29.5733C6.21875 28.979 6.70692 28.4908 7.30122 28.4908H25.6749C26.2762 28.4908 26.7573 28.979 26.7573 29.5733C26.7573 30.1676 26.2762 30.6558 25.6749 30.6558Z" fill="#008AD1"/>
</svg>
