<svg width="64" height="64" viewBox="0 0 64 64" fill="none" xmlns="http://www.w3.org/2000/svg">
<path d="M31.8615 64C14.2929 64 0 49.6449 0 32C0 14.3551 14.2929 0 31.8615 0C49.43 0 63.7229 14.3551 63.7229 32C63.7229 49.6449 49.43 64 31.8615 64ZM31.8615 1.0471C14.8705 1.0471 1.04256 14.9352 1.04256 32C1.04256 49.0648 14.8705 62.9529 31.8615 62.9529C48.8594 62.9529 62.6804 49.0648 62.6804 32C62.6804 14.9352 48.8524 1.0471 31.8615 1.0471Z" fill="#008AD1"/>
<path d="M37.7579 23.588C38.1312 23.2908 38.4834 22.9654 38.8145 22.5975C40.2586 21.0056 38.1241 19.0105 36.511 20.284C35.4966 21.0834 32.2281 20.6094 31.0305 20.6236C29.2835 20.6519 27.5365 20.6731 25.7895 20.7014C23.6974 20.7297 23.6903 23.9983 25.7895 23.97C27.3111 23.9488 28.8256 23.9276 30.3472 23.9063C30.3472 23.9629 30.3402 24.0266 30.3402 24.0832C28.72 24.0478 27.128 24.2671 25.5289 24.5431C23.7396 24.8614 24.1341 27.9391 25.9586 27.7551C26.8814 27.6631 27.8183 27.5146 28.7411 27.465C28.889 27.458 29.037 27.4579 29.1849 27.4509C29.8189 27.465 30.3402 27.6348 30.9319 27.8117C30.8896 27.8754 30.8403 27.9391 30.7981 28.0098C29.7132 28.6253 28.5509 28.7597 27.0857 29.0427C25.7543 29.3045 24.7822 30.0898 25.0569 31.5543C25.3951 33.3443 27.2196 34.1579 28.2692 35.4526C29.192 36.5917 29.6569 37.7379 30.7135 38.5232C30.7417 38.5727 30.7699 38.6222 30.791 38.6717C31.0376 39.2307 31.0235 39.832 31.3898 40.3273C32.0942 41.2824 33.7637 41.5088 34.7852 41.8555C36.4406 42.4215 37.3493 40.2636 36.3701 39.1245C35.9122 38.5939 35.4614 38.0704 35.0035 37.5398C34.5879 37.0587 34.0878 36.9384 33.6299 37.0445C33.5735 36.7898 33.4679 36.5493 33.3058 36.3512C32.8902 35.8347 32.4676 35.3182 32.052 34.8017C31.8618 34.5683 31.6363 34.4339 31.3968 34.356C31.2419 34.066 31.0939 33.7971 30.9601 33.599C31.1644 32.9693 31.0235 32.2194 30.5304 31.7737C30.8333 31.6746 31.1362 31.5614 31.432 31.4341C32.2633 31.0662 33.01 30.5851 33.6792 29.9979C33.7285 29.9625 33.7849 29.9342 33.8342 29.8917C33.8764 29.8564 33.9116 29.8281 33.9539 29.7927C34.0314 29.729 34.0948 29.6441 34.1582 29.5592C34.3132 29.4036 34.4682 29.2479 34.609 29.0781C34.8204 28.8376 34.9401 28.5829 35.0035 28.3282C36.0461 27.6136 37.3141 27.0688 38.2721 26.5028C39.7162 25.6538 39.0258 23.9063 37.7579 23.588Z" fill="#FFE500"/>
<path d="M38.9621 20.8071L37.4053 23.156H34.5665C34.8483 23.5805 35.0666 24.0687 35.1934 24.6135H38.9621L37.4053 26.9623H35.2357C34.7144 29.9126 31.9601 31.4549 29.2621 31.745L36.6093 40.9637H32.8336L25.6413 31.9219V29.856H27.649C30.9809 29.856 32.0235 28.1297 32.1432 26.9553H24.7608L26.3176 24.6064H31.7699C30.9387 23.2692 29.1917 23.1489 27.3179 23.1489H24.7678L26.3246 20.8001H38.9621V20.8071ZM38.9621 19.4629H26.3176C25.8667 19.4629 25.4511 19.6893 25.2046 20.0643L23.6478 22.4131C23.3731 22.8235 23.3519 23.3541 23.5844 23.7928C23.8168 24.2314 24.2677 24.5003 24.7608 24.5003H24.7819L23.6478 26.2195C23.3731 26.6298 23.3519 27.1604 23.5844 27.5991C23.8168 28.0377 24.2677 28.3066 24.7608 28.3066H29.3044C28.8676 28.441 28.3182 28.5259 27.649 28.5259H25.6413C25.2891 28.5259 24.9439 28.6674 24.6974 28.9221C24.4438 29.1768 24.3029 29.5164 24.3029 29.8701V31.936C24.3029 32.2402 24.4086 32.5374 24.5988 32.7709L31.791 41.7985C32.0446 42.1169 32.432 42.3008 32.8336 42.3008H36.6093C37.1236 42.3008 37.5955 42.0037 37.8139 41.5367C38.0393 41.0698 37.9759 40.5179 37.6519 40.1147L31.6431 32.5728C32.4532 32.2898 33.1999 31.9007 33.848 31.4337C34.9891 30.6059 35.8063 29.5376 36.2571 28.2995H37.4053C37.8562 28.2995 38.2718 28.0731 38.5183 27.6981L40.0751 25.3492C40.3499 24.9389 40.371 24.4083 40.1385 23.9696C39.9061 23.531 39.4552 23.2621 38.9621 23.2621H38.941L40.0611 21.5712C40.209 21.3519 40.3006 21.0901 40.3006 20.8001C40.3006 20.0643 39.7018 19.4629 38.9621 19.4629Z" fill="#008AD1"/>
<path d="M32.4251 51.7178C32.2561 51.7178 32.094 51.6471 31.9743 51.5268L14.61 34.0871C14.4269 33.9031 14.3705 33.6272 14.4692 33.3866C14.5678 33.1461 14.8002 32.9904 15.0609 32.9904H21.0556V17.2558C21.0556 16.902 21.3444 16.6119 21.6966 16.6119C22.0488 16.6119 22.3377 16.902 22.3377 17.2558V33.6343C22.3377 33.988 22.0488 34.2781 21.6966 34.2781H16.6036L32.404 50.1472L46.7885 34.2781H42.0899C41.7377 34.2781 41.4489 33.988 41.4489 33.6343V17.2841C41.4489 16.9303 41.7377 16.6402 42.0899 16.6402C42.4422 16.6402 42.731 16.9303 42.731 17.2841V32.9904H48.2396C48.4932 32.9904 48.7187 33.139 48.8243 33.3725C48.93 33.606 48.8807 33.8748 48.7116 34.0658L32.8971 51.5127C32.7773 51.64 32.6153 51.7178 32.4392 51.7249C32.4322 51.7178 32.4322 51.7178 32.4251 51.7178Z" fill="#008AD1"/>
</svg>
