<svg width="68" height="64" viewBox="0 0 68 64" fill="none" xmlns="http://www.w3.org/2000/svg">
<path d="M33.7615 64C15.1453 64 0 49.6449 0 32C0 14.3551 15.1453 0 33.7615 0C52.3777 0 67.5229 14.3551 67.5229 32C67.5229 49.6449 52.3777 64 33.7615 64ZM33.7615 1.0471C15.7499 1.0471 1.10473 14.9352 1.10473 32C1.10473 49.0648 15.7573 62.9529 33.7615 62.9529C51.7656 62.9529 66.4182 49.0648 66.4182 32C66.4182 14.9352 51.7656 1.0471 33.7615 1.0471Z" fill="#008AD1"/>
<path d="M25.864 42.1311C26.5881 42.1311 27.1778 41.5722 27.1778 40.8859V31.547C27.1778 30.8607 26.5881 30.3018 25.864 30.3018C25.14 30.3018 24.5503 30.8607 24.5503 31.547V40.8859C24.5503 41.5722 25.14 42.1311 25.864 42.1311Z" fill="#FFE500"/>
<path d="M19.2953 35.2827V38.3957C19.2953 39.4286 20.1761 40.2635 21.2659 40.2635H23.2365V33.4149H21.2659C20.1761 33.4149 19.2953 34.2498 19.2953 35.2827Z" fill="#FFE500"/>
<path d="M46.2346 33.4149H44.264V40.2635H46.2346C47.3244 40.2635 48.2052 39.4286 48.2052 38.3957V35.2827C48.2052 34.2498 47.317 33.4149 46.2346 33.4149Z" fill="#FFE500"/>
<path d="M41.6364 30.3018C40.9123 30.3018 40.3226 30.8607 40.3226 31.547V40.8859C40.3226 41.5722 40.9123 42.1311 41.6364 42.1311C42.3604 42.1311 42.9501 41.5722 42.9501 40.8859V31.547C42.9501 30.8607 42.3604 30.3018 41.6364 30.3018Z" fill="#FFE500"/>
<path d="M20.609 28.4342V32.1698C20.609 32.191 20.6165 32.2122 20.6165 32.2335C19.1162 32.5235 17.9816 33.7758 17.9816 35.2828V38.3957C17.9816 40.115 19.4521 41.5087 21.2659 41.5087H23.2365C23.2664 41.5087 23.2888 41.5016 23.3186 41.5016C23.6097 42.577 24.6398 43.3765 25.864 43.3765C27.3121 43.3765 28.4914 42.2587 28.4914 40.8861V31.5472C28.4914 30.1747 27.3121 29.0568 25.864 29.0568C24.4159 29.0568 23.2365 30.1747 23.2365 31.5472V32.1698H21.9228V28.4342C21.9228 22.2507 27.23 17.2275 33.7464 17.2275V15.9823C26.5059 15.9752 20.609 21.5644 20.609 28.4342ZM24.5502 31.5472C24.5502 30.8609 25.1399 30.302 25.864 30.302C26.588 30.302 27.1777 30.8609 27.1777 31.5472V40.8861C27.1777 41.5724 26.588 42.1313 25.864 42.1313C25.1399 42.1313 24.5502 41.5724 24.5502 40.8861V31.5472ZM23.2365 33.415V40.2635H21.2659C20.1761 40.2635 19.2953 39.4287 19.2953 38.3957V35.2828C19.2953 34.2498 20.1761 33.415 21.2659 33.415H23.2365Z" fill="#008AD1"/>
<path d="M46.8838 32.2264C46.8838 32.2052 46.8912 32.1839 46.8912 32.1627V28.4271C46.8912 21.5574 40.9944 15.9752 33.7539 15.9752V17.2204C40.2778 17.2204 45.5775 22.2507 45.5775 28.4271V32.1627H44.2638V31.5401C44.2638 30.1676 43.0844 29.0497 41.6363 29.0497C40.1882 29.0497 39.0088 30.1676 39.0088 31.5401V40.8791C39.0088 42.2516 40.1882 43.3694 41.6363 43.3694C42.8605 43.3694 43.8906 42.57 44.1817 41.4946C44.2115 41.4946 44.2339 41.5016 44.2638 41.5016H46.2344C48.0482 41.5016 49.5187 40.1079 49.5187 38.3887V35.2757C49.5187 33.7758 48.3841 32.5165 46.8838 32.2264ZM42.95 40.8861C42.95 41.5724 42.3604 42.1313 41.6363 42.1313C40.9123 42.1313 40.3226 41.5724 40.3226 40.8861V31.5472C40.3226 30.8609 40.9123 30.302 41.6363 30.302C42.3604 30.302 42.95 30.8609 42.95 31.5472V40.8861ZM48.205 38.3957C48.205 39.4287 47.3242 40.2635 46.2344 40.2635H44.2638V33.415H46.2344C47.3242 33.415 48.205 34.2498 48.205 35.2828V38.3957Z" fill="#008AD1"/>
<path d="M41.6364 48.7112H37.7176C36.8442 48.7112 36.1426 48.0391 36.1426 47.2184C36.1426 46.3977 36.8517 45.7256 37.7176 45.7256H41.6364C42.5097 45.7256 43.2114 46.3977 43.2114 47.2184C43.2114 48.0391 42.5022 48.7112 41.6364 48.7112Z" fill="#008AD1"/>
<path d="M42.3755 47.7134C42.0844 47.7134 41.853 47.487 41.853 47.2182C41.853 46.9493 42.0919 46.723 42.3755 46.723C44.0625 46.723 45.4135 46.1923 46.3914 45.1452C48.9517 42.3931 48.2724 36.9666 48.2649 36.91C48.2276 36.6341 48.4366 36.3864 48.7203 36.3511C49.0039 36.3086 49.2726 36.5067 49.31 36.7826C49.3398 37.0232 50.0564 42.7115 47.1826 45.8032C46.0032 47.0696 44.3835 47.7134 42.3755 47.7134Z" fill="#008AD1"/>
</svg>
