<svg width="64" height="64" viewBox="0 0 64 64" fill="none" xmlns="http://www.w3.org/2000/svg">
<path d="M32 64C14.3551 64 0 49.6449 0 32C0 14.3551 14.3551 0 32 0C49.6449 0 64 14.3551 64 32C64 49.6449 49.6449 64 32 64ZM32 1.04002C14.9352 1.04002 1.04709 14.9281 1.04709 31.9929C1.04709 49.0648 14.9352 62.9458 32 62.9458C49.0718 62.9458 62.9529 49.0577 62.9529 31.9929C62.9529 14.9281 49.0648 1.04002 32 1.04002Z" fill="#008AD1"/>
<path d="M35.9266 41.8556C35.7002 41.8556 35.4668 41.7707 35.2899 41.608C34.9078 41.2543 34.8795 40.66 35.2333 40.2779L47.9824 26.4605C48.3361 26.0785 48.9304 26.0502 49.3124 26.4039C49.6945 26.7577 49.7228 27.352 49.369 27.734L36.62 41.5514C36.436 41.7495 36.1813 41.8556 35.9266 41.8556Z" fill="#008AD1"/>
<path d="M38.5656 30.9601C40.2145 30.9601 41.5512 29.6234 41.5512 27.9745C41.5512 26.3256 40.2145 24.9889 38.5656 24.9889C36.9166 24.9889 35.58 26.3256 35.58 27.9745C35.58 29.6234 36.9166 30.9601 38.5656 30.9601Z" fill="white"/>
<path d="M38.5655 31.9012C36.4006 31.9012 34.6389 30.1395 34.6389 27.9746C34.6389 25.8096 36.4006 24.048 38.5655 24.048C40.7304 24.048 42.4921 25.8096 42.4921 27.9746C42.4921 30.1395 40.7304 31.9012 38.5655 31.9012ZM38.5655 25.937C37.4406 25.937 36.5279 26.8497 36.5279 27.9746C36.5279 29.0995 37.4406 30.0122 38.5655 30.0122C39.6904 30.0122 40.6031 29.0995 40.6031 27.9746C40.6031 26.8497 39.6833 25.937 38.5655 25.937Z" fill="#008AD1"/>
<path d="M47.1686 41.2896C48.8175 41.2896 50.1542 39.9529 50.1542 38.304C50.1542 36.6551 48.8175 35.3184 47.1686 35.3184C45.5197 35.3184 44.183 36.6551 44.183 38.304C44.183 39.9529 45.5197 41.2896 47.1686 41.2896Z" fill="white"/>
<path d="M47.1687 42.2306C45.0037 42.2306 43.2421 40.469 43.2421 38.304C43.2421 36.1391 45.0037 34.3774 47.1687 34.3774C49.3336 34.3774 51.0953 36.1391 51.0953 38.304C51.0953 40.469 49.3336 42.2306 47.1687 42.2306ZM47.1687 36.2665C46.0437 36.2665 45.1311 37.1791 45.1311 38.304C45.1311 39.429 46.0437 40.3416 47.1687 40.3416C48.2936 40.3416 49.2062 39.429 49.2062 38.304C49.2062 37.1791 48.2936 36.2665 47.1687 36.2665Z" fill="#008AD1"/>
<path d="M25.0029 43.7022C29.4964 43.7022 33.1391 39.0047 33.1391 33.21C33.1391 27.4154 29.4964 22.7179 25.0029 22.7179C20.5094 22.7179 16.8667 27.4154 16.8667 33.21C16.8667 39.0047 20.5094 43.7022 25.0029 43.7022Z" fill="#FFE400"/>
<path d="M25.003 44.65C19.9939 44.65 15.9258 39.5207 15.9258 33.2098C15.9258 26.899 20.001 21.7697 25.003 21.7697C30.0049 21.7697 34.0801 26.899 34.0801 33.2098C34.0801 39.5207 30.012 44.65 25.003 44.65ZM25.003 23.6587C21.041 23.6587 17.8148 27.9461 17.8148 33.2098C17.8148 38.4736 21.041 42.761 25.003 42.761C28.9649 42.761 32.1911 38.4736 32.1911 33.2098C32.1911 27.9461 28.972 23.6587 25.003 23.6587Z" fill="#008AD1"/>
</svg>
