<svg width="64" height="64" viewBox="0 0 64 64" fill="none" xmlns="http://www.w3.org/2000/svg">
<path d="M32 64C14.3551 64 0 49.6449 0 32C0 14.3551 14.3551 0 32 0C49.6449 0 64 14.3551 64 32C64 49.6449 49.6449 64 32 64ZM32 1.04002C14.9281 1.04002 1.04708 14.9281 1.04708 31.9929C1.04708 49.0648 14.9352 62.9458 32 62.9458C49.0648 62.9458 62.9529 49.0577 62.9529 31.9929C62.9529 14.9281 49.0718 1.04002 32 1.04002Z" fill="#008AD1"/>
<path d="M43.0652 44.7986H21.4229C20.3263 44.7986 19.4419 43.9142 19.4419 42.8176V21.1753C19.4419 20.0787 20.3263 19.1943 21.4229 19.1943H43.0652C44.1618 19.1943 45.0461 20.0787 45.0461 21.1753V42.8176C45.0532 43.9142 44.1618 44.7986 43.0652 44.7986Z" fill="#FFE400"/>
<path d="M43.0652 45.7611H21.4229C19.8027 45.7611 18.4797 44.438 18.4797 42.8179V21.1756C18.4797 19.5554 19.8027 18.2324 21.4229 18.2324H43.0652C44.6924 18.2324 46.0083 19.5554 46.0083 21.1756V42.8179C46.0154 44.438 44.6924 45.7611 43.0652 45.7611ZM21.4229 20.1568C20.864 20.1568 20.4041 20.6167 20.4041 21.1756V42.8179C20.4041 43.3768 20.864 43.8367 21.4229 43.8367H43.0652C43.6241 43.8367 44.084 43.3768 44.084 42.8179V21.1756C44.084 20.6167 43.6241 20.1568 43.0652 20.1568H21.4229Z" fill="#008AD1"/>
<path d="M31.7524 44.155H21.4513C20.6943 44.155 20.0858 43.5465 20.0858 42.7895V32.4884H31.7524V44.155Z" fill="white"/>
<path d="M33.1673 19.1943H31.2429V44.7986H33.1673V19.1943Z" fill="#008AD1"/>
<path d="M28.4908 37.9429H23.503C22.9723 37.9429 22.5408 37.5114 22.5408 36.9807C22.5408 36.4501 22.9723 36.0186 23.503 36.0186H28.4908C29.0214 36.0186 29.453 36.4501 29.453 36.9807C29.453 37.5114 29.0285 37.9429 28.4908 37.9429Z" fill="#008AD1"/>
<path d="M28.4909 40.4902H23.5031C22.9725 40.4902 22.5409 40.0586 22.5409 39.528C22.5409 38.9974 22.9725 38.5658 23.5031 38.5658H28.4909C29.0216 38.5658 29.4531 38.9974 29.4531 39.528C29.4531 40.0586 29.0286 40.4902 28.4909 40.4902Z" fill="#008AD1"/>
<path d="M36.9525 40.759C36.7048 40.759 36.4572 40.6671 36.2733 40.476C35.8983 40.1011 35.8983 39.4926 36.2733 39.1106L39.8037 35.5802C40.1787 35.2052 40.7871 35.2052 41.1691 35.5802C41.5441 35.9552 41.5441 36.5636 41.1691 36.9456L37.6388 40.476C37.4477 40.6671 37.2001 40.759 36.9525 40.759Z" fill="#008AD1"/>
<path d="M40.4829 40.759C40.2352 40.759 39.9876 40.6671 39.8037 40.476L36.2733 36.9456C35.8983 36.5707 35.8983 35.9622 36.2733 35.5802C36.6483 35.2052 37.2567 35.2052 37.6388 35.5802L41.1691 39.1106C41.5441 39.4856 41.5441 40.094 41.1691 40.476C40.971 40.6671 40.7305 40.759 40.4829 40.759Z" fill="#008AD1"/>
<path d="M44.5581 31.2362H18.9539V33.1606H44.5581V31.2362Z" fill="#008AD1"/>
<path d="M25.5476 29.623C25.017 29.623 24.5854 29.1915 24.5854 28.6608V23.673C24.5854 23.1424 25.017 22.7108 25.5476 22.7108C26.0783 22.7108 26.5098 23.1424 26.5098 23.673V28.6608C26.5098 29.1915 26.0783 29.623 25.5476 29.623Z" fill="#008AD1"/>
<path d="M28.0451 27.1256H23.0573C22.5267 27.1256 22.0951 26.694 22.0951 26.1634C22.0951 25.6328 22.5267 25.2012 23.0573 25.2012H28.0451C28.5758 25.2012 29.0073 25.6328 29.0073 26.1634C29.0073 26.694 28.5758 27.1256 28.0451 27.1256Z" fill="#008AD1"/>
<path d="M40.7658 27.1256H35.778C35.2474 27.1256 34.8158 26.694 34.8158 26.1634C34.8158 25.6327 35.2474 25.2012 35.778 25.2012H40.7658C41.2964 25.2012 41.728 25.6327 41.728 26.1634C41.728 26.694 41.2964 27.1256 40.7658 27.1256Z" fill="#008AD1"/>
</svg>
