<svg width="64" height="64" viewBox="0 0 64 64" fill="none" xmlns="http://www.w3.org/2000/svg">
<path d="M32 64C14.3551 64 0 49.6449 0 32C0 14.3551 14.3551 0 32 0C49.6449 0 64 14.3551 64 32C64 49.6449 49.6449 64 32 64ZM32 1.0471C14.9281 1.0471 1.04708 14.9352 1.04708 32C1.04708 49.0648 14.9352 62.9529 32 62.9529C49.0648 62.9529 62.9529 49.0648 62.9529 32C62.9529 14.9352 49.0718 1.0471 32 1.0471Z" fill="#008AD1"/>
<path d="M38.5867 49.5883H25.4202C23.9698 49.5883 22.7883 48.4068 22.7883 46.9564V17.0435C22.7883 15.5931 23.9698 14.4116 25.4202 14.4116H38.5867C40.037 14.4116 41.2186 15.5931 41.2186 17.0435V46.9564C41.2115 48.4068 40.03 49.5883 38.5867 49.5883ZM25.4202 16.0884C24.8966 16.0884 24.4651 16.52 24.4651 17.0435V46.9564C24.4651 47.4799 24.8966 47.9115 25.4202 47.9115H38.5867C39.1102 47.9115 39.5418 47.4799 39.5418 46.9564V17.0435C39.5418 16.52 39.1102 16.0884 38.5867 16.0884H25.4202Z" fill="#008AD1"/>
<path d="M40.0159 20.8358H23.9417V42.6974H40.0159V20.8358Z" fill="#FFE500"/>
<path d="M40.0158 43.5321H23.9416C23.4817 43.5321 23.1067 43.1572 23.1067 42.6973V20.8357C23.1067 20.3758 23.4817 20.0009 23.9416 20.0009H40.0158C40.4757 20.0009 40.8507 20.3758 40.8507 20.8357V42.6973C40.8507 43.1572 40.4757 43.5321 40.0158 43.5321ZM24.7764 41.8554H39.1739V21.6705H24.7764V41.8554Z" fill="#008AD1"/>
<path d="M31.993 46.4614C32.3251 46.4614 32.5944 46.1922 32.5944 45.86C32.5944 45.5279 32.3251 45.2587 31.993 45.2587C31.6608 45.2587 31.3916 45.5279 31.3916 45.86C31.3916 46.1922 31.6608 46.4614 31.993 46.4614Z" fill="#FFE500"/>
<path d="M31.9927 47.7983C30.9244 47.7983 30.0542 46.9281 30.0542 45.8598C30.0542 44.7915 30.9244 43.9213 31.9927 43.9213C33.061 43.9213 33.9313 44.7915 33.9313 45.8598C33.9384 46.9281 33.0681 47.7983 31.9927 47.7983ZM31.9927 45.1169C31.5824 45.1169 31.2499 45.4495 31.2499 45.8598C31.2499 46.2702 31.5824 46.6027 31.9927 46.6027C32.4031 46.6027 32.7356 46.2702 32.7356 45.8598C32.7356 45.4495 32.4031 45.1169 31.9927 45.1169Z" fill="#008AD1"/>
</svg>
