<svg width="64" height="64" viewBox="0 0 64 64" fill="none" xmlns="http://www.w3.org/2000/svg">
<path d="M28.229 42.676C27.0546 42.676 26.0924 43.6311 26.0924 44.8126C26.0924 45.987 27.0475 46.9492 28.229 46.9492C29.4035 46.9492 30.3657 45.9941 30.3657 44.8126C30.3657 43.6382 29.4035 42.676 28.229 42.676Z" fill="#F8F8F9"/>
<path d="M31.4339 19.1802C33.2027 19.1802 34.6389 20.6164 34.6389 22.3852C34.6389 24.1539 33.2027 25.5901 31.4339 25.5901C31.0589 25.5901 30.6981 25.5194 30.3656 25.4062V28.8729L31.4339 29.9412L35.2119 26.1632C36.2237 25.1515 36.7755 23.8143 36.7755 22.3852C36.7755 20.956 36.2166 19.6189 35.2119 18.6071C34.2073 17.5954 32.8631 17.0436 31.4339 17.0436C31.0731 17.0436 30.7123 17.079 30.3656 17.1497V19.3642C30.6981 19.2439 31.0589 19.1802 31.4339 19.1802Z" fill="white"/>
<path d="M27.656 26.156L30.3657 28.8657V25.399C29.1205 24.9603 28.229 23.7718 28.229 22.3851C28.229 20.9913 29.1205 19.8098 30.3657 19.3641V17.1496C29.3469 17.3548 28.413 17.8571 27.656 18.607C25.5759 20.6871 25.5759 24.076 27.656 26.156Z" fill="#F8F8F9"/>
<path d="M24.0407 21.3168H20.7508C20.1636 21.3168 19.6825 21.7979 19.6825 22.3851V41.6148C19.6825 42.202 20.1636 42.6831 20.7508 42.6831H24.5359C25.2788 41.4096 26.6513 40.5465 28.229 40.5465C29.0073 40.5465 29.736 40.7587 30.3657 41.1266V31.8867L26.149 27.6701C24.4156 25.9367 23.7223 23.5666 24.0407 21.3168Z" fill="#FAD300"/>
<path d="M31.9221 42.676H39.4852C39.8814 41.9898 40.4686 41.4167 41.1761 41.0417C41.0912 40.8932 41.0417 40.7234 41.0417 40.5394V22.3851C41.0417 21.7979 40.5606 21.3168 39.9734 21.3168H38.8202C38.8697 21.6705 38.9051 22.0243 38.9051 22.3851C38.9051 24.3802 38.1268 26.2622 36.7189 27.6701L32.1839 32.2051C31.9787 32.4103 31.7028 32.5164 31.4268 32.5164C31.1509 32.5164 30.8821 32.4103 30.6698 32.2051L30.3585 31.8938V41.1266C31.0094 41.4945 31.5471 42.0322 31.9221 42.676Z" fill="#FFE500"/>
<path d="M43.1784 42.676C42.0039 42.676 41.0417 43.6311 41.0417 44.8126C41.0417 45.987 41.9969 46.9492 43.1784 46.9492C44.3528 46.9492 45.315 45.9941 45.315 44.8126C45.315 43.6382 44.3599 42.676 43.1784 42.676Z" fill="white"/>
<path d="M45.3151 29.8563H43.1785V40.5394C44.7562 40.5394 46.1358 41.4026 46.8716 42.6761H48.5201C49.1073 42.6761 49.5884 42.195 49.5884 41.6078V34.1295C49.5884 31.7736 47.6711 29.8563 45.3151 29.8563Z" fill="white"/>
<path d="M28.229 46.9494C27.0545 46.9494 26.0924 45.9942 26.0924 44.8127C26.0924 43.6383 27.0475 42.6761 28.229 42.6761C29.4034 42.6761 30.3656 43.6312 30.3656 44.8127V41.1196C29.7359 40.7517 29.0072 40.5395 28.229 40.5395C26.6513 40.5395 25.2716 41.4026 24.5359 42.6761H20.7508C20.1635 42.6761 19.6824 42.195 19.6824 41.6078V22.3851C19.6824 21.7979 20.1635 21.3168 20.7508 21.3168H24.0406C23.7152 23.5667 24.4156 25.9438 26.1419 27.6701L30.3585 31.8868V28.8658L27.6488 26.1561C25.5688 24.0761 25.5688 20.6871 27.6488 18.6C28.3988 17.8501 29.3398 17.3478 30.3585 17.1426V14.9847C28.7667 15.2111 27.2951 15.9328 26.1419 17.0931C25.5193 17.7157 25.0382 18.4232 24.6844 19.1731H20.7508C18.982 19.1731 17.5458 20.6093 17.5458 22.3781V23.4464H12.2042C11.617 23.4464 11.1359 23.9275 11.1359 24.5147C11.1359 25.1019 11.617 25.583 12.2042 25.583H17.5458V27.7196H14.3409C13.7536 27.7196 13.2725 28.2007 13.2725 28.788C13.2725 29.3752 13.7536 29.8563 14.3409 29.8563H17.5458V31.9929H10.0676C9.48037 31.9929 8.99927 32.474 8.99927 33.0612C8.99927 33.6485 9.48037 34.1296 10.0676 34.1296H17.5458V41.6078C17.5458 43.3765 18.982 44.8127 20.7508 44.8127H23.9557C23.9557 47.1687 25.873 49.086 28.229 49.086C29.0072 49.086 29.7359 48.8738 30.3656 48.5059V44.8127C30.3656 45.9942 29.4034 46.9494 28.229 46.9494Z" fill="#007EC0"/>
<path d="M45.315 27.7267H43.1783V22.3851C43.1783 20.6163 41.7421 19.1801 39.9734 19.1801H38.1763C37.8155 18.416 37.3273 17.7085 36.7118 17.1001C35.2968 15.6851 33.422 14.9069 31.4268 14.9069C31.066 14.9069 30.7123 14.9422 30.3585 14.9918V17.1496C30.7052 17.0789 31.066 17.0435 31.4268 17.0435C32.856 17.0435 34.1931 17.6024 35.2049 18.6071C36.2166 19.6188 36.7684 20.9559 36.7684 22.3851C36.7684 23.8142 36.2095 25.1514 35.2049 26.1631L31.4268 29.9411L30.3585 28.8728V31.8938L30.6698 32.2051C30.875 32.4103 31.1509 32.5164 31.4268 32.5164C31.7028 32.5164 31.9716 32.4103 32.1839 32.2051L36.7189 27.6701C38.1339 26.2551 38.9051 24.3802 38.9051 22.3851C38.9051 22.0243 38.8697 21.6705 38.8202 21.3168H39.9734C40.5606 21.3168 41.0417 21.7979 41.0417 22.3851V40.5465C41.0417 40.7304 41.0912 40.9002 41.1761 41.0488C40.4686 41.4238 39.8885 41.9968 39.4852 42.6831H31.9221C31.5471 42.0393 31.0094 41.5016 30.3656 41.1266V44.8198V48.5129C31.6391 47.77 32.5022 46.3975 32.5022 44.8198H38.9121C38.9121 47.1757 40.8294 49.093 43.1854 49.093C45.5414 49.093 47.4587 47.1757 47.4587 44.8198H48.527C50.2957 44.8198 51.7319 43.3835 51.7319 41.6148V34.1295C51.7249 30.5991 48.8524 27.7267 45.315 27.7267ZM43.1783 46.9493C42.0039 46.9493 41.0417 45.9942 41.0417 44.8127C41.0417 43.6382 41.9968 42.676 43.1783 42.676C44.3528 42.676 45.315 43.6312 45.315 44.8127C45.315 45.9942 44.3598 46.9493 43.1783 46.9493ZM49.5882 41.6077C49.5882 42.1949 49.1071 42.676 48.5199 42.676H46.8715C46.1286 41.4025 44.756 40.5394 43.1783 40.5394V29.8562H45.315C47.6709 29.8562 49.5882 31.7735 49.5882 34.1295V41.6077Z" fill="#008AD1"/>
<path d="M34.6389 22.3851C34.6389 20.6164 33.2027 19.1802 31.4339 19.1802C31.0589 19.1802 30.6981 19.2509 30.3656 19.3641V22.3851C30.3656 21.7979 30.8467 21.3168 31.4339 21.3168C32.0211 21.3168 32.5022 21.7979 32.5022 22.3851C32.5022 22.9723 32.0211 23.4534 31.4339 23.4534C30.8467 23.4534 30.3656 22.9723 30.3656 22.3851V25.3991C30.6981 25.5193 31.0589 25.583 31.4339 25.583C33.1956 25.5901 34.6389 24.1468 34.6389 22.3851Z" fill="#008AD1"/>
<path d="M30.3656 19.3641C29.1205 19.8028 28.229 20.9914 28.229 22.3851C28.229 23.7789 29.1205 24.9604 30.3656 25.3991V22.3851V19.3641Z" fill="#007EC0"/>
<path d="M32 64C14.3551 64 0 49.6449 0 32C0 14.3551 14.3551 0 32 0C49.6449 0 64 14.3551 64 32C64 49.6449 49.6449 64 32 64ZM32 1.04002C14.9281 1.04002 1.0471 14.9281 1.0471 31.9929C1.0471 49.0648 14.9352 62.9458 32 62.9458C49.0648 62.9458 62.9529 49.0577 62.9529 31.9929C62.9529 14.9281 49.0648 1.04002 32 1.04002Z" fill="#008AD1"/>
</svg>
